<?xml version="1.0" standalone="no"?>
<!DOCTYPE svg PUBLIC "-//W3C//DTD SVG 20010904//EN"
 "http://www.w3.org/TR/2001/REC-SVG-20010904/DTD/svg10.dtd">
<svg version="1.0" xmlns="http://www.w3.org/2000/svg"
 width="300.000000pt" height="444.000000pt" viewBox="0 0 300.000000 444.000000"
 preserveAspectRatio="xMidYMid meet">
<metadata>
Created by potrace 1.10, written by Peter Selinger 2001-2011
</metadata>
<g transform="translate(0.000000,444.000000) scale(0.100000,-0.100000)"
fill="#000000" stroke="none">
<path d="M1935 4273 c14 -34 35 -106 35 -121 0 -9 -12 -3 -32 17 -31 31 -73
49 -84 38 -3 -3 3 -18 14 -34 11 -15 23 -42 27 -60 6 -30 4 -33 -37 -51 -63
-29 -150 -103 -186 -158 -58 -87 -99 -273 -86 -392 6 -54 4 -61 -9 -56 -24 9
-64 -37 -77 -87 -26 -94 9 -166 94 -198 l51 -19 7 -62 c10 -85 23 -122 69
-183 42 -55 45 -73 17 -91 -22 -13 -35 -1 -19 18 31 37 -19 77 -122 98 -51 11
-53 12 -49 42 4 40 -27 90 -70 112 -22 12 -64 19 -129 22 -93 4 -97 3 -166
-32 -40 -19 -91 -38 -115 -42 -37 -5 -91 -21 -188 -57 l-25 -9 30 -14 30 -14
-45 5 c-36 5 -64 -1 -144 -31 -55 -21 -94 -40 -88 -42 28 -9 9 -22 -33 -22
-24 0 -62 -6 -82 -14 -21 -8 -83 -26 -138 -41 -134 -35 -240 -87 -265 -128
-26 -42 -25 -59 6 -96 19 -23 24 -38 20 -56 -14 -57 32 -88 146 -100 52 -6 69
-11 73 -25 16 -51 153 -69 317 -41 75 13 76 13 110 -12 41 -31 139 -57 238
-62 l75 -4 12 -67 c14 -76 58 -211 76 -235 22 -29 73 -48 161 -59 59 -7 92 -7
105 0 11 5 23 10 28 10 5 0 -1 -71 -13 -157 -111 -791 -109 -759 -55 -867 29
-58 129 -195 143 -196 10 0 19 51 37 200 l16 135 37 18 c21 10 41 16 46 13 5
-3 3 -33 -4 -68 -28 -131 -13 -267 40 -362 16 -30 18 -40 8 -43 -8 -3 -22 -25
-32 -49 -11 -25 -26 -44 -35 -44 -32 0 -94 -40 -110 -72 -69 -137 -54 -217 52
-265 45 -21 63 -24 101 -18 64 9 69 13 185 121 58 54 131 110 169 131 74 40
98 75 79 111 -6 12 -11 29 -11 39 0 10 -16 52 -36 93 l-35 74 40 34 c23 18 41
40 41 48 0 8 3 14 8 14 4 0 13 -27 19 -61 14 -75 32 -103 83 -129 51 -26 105
-25 154 3 63 36 81 68 81 145 0 66 -2 70 -59 154 l-59 87 27 31 c24 29 26 38
26 129 0 54 3 100 6 104 4 3 23 -20 44 -51 21 -31 60 -82 87 -112 49 -53 51
-54 76 -41 33 17 139 124 171 171 36 54 40 77 17 90 -20 10 -20 11 4 47 25 36
55 121 55 154 0 10 -11 19 -26 23 -51 13 -254 230 -254 272 0 5 35 17 78 27
130 31 187 76 211 165 17 60 1 105 -65 191 -31 40 -99 150 -151 244 -52 95
-106 187 -120 205 -25 33 -116 92 -143 92 -8 0 -29 26 -46 56 l-31 57 39 57
c21 32 44 75 52 96 11 34 17 39 62 49 66 15 109 42 140 87 48 68 41 186 -12
210 -16 8 -22 17 -19 28 19 59 35 187 35 275 0 97 -2 106 -34 171 -56 111 -92
146 -219 210 -62 31 -143 81 -182 112 -67 55 -145 106 -151 99 -2 -1 7 -25 20
-51 13 -27 25 -43 28 -36 5 16 53 -13 112 -68 24 -22 47 -38 50 -34 4 3 10 2
14 -4 4 -6 41 -28 82 -48 41 -20 91 -50 111 -66 90 -72 147 -213 134 -334 -4
-34 -8 -74 -9 -91 -2 -16 -9 -56 -16 -89 -10 -44 -16 -54 -21 -40 -7 17 -8 17
-8 -2 -1 -25 -21 -36 -42 -23 -8 5 -9 9 -3 9 13 0 -24 153 -38 158 -4 2 -5 9
-1 15 4 6 8 20 9 31 1 12 6 43 12 70 9 46 1 100 -17 116 -3 3 -11 14 -17 25
-6 10 -37 33 -70 50 -32 16 -61 32 -64 35 -10 10 -140 10 -140 0 0 -5 -8 -10
-17 -10 -10 0 -36 -12 -58 -25 -37 -23 -79 -37 -45 -15 12 8 11 10 -7 10 -13
0 -30 11 -39 25 -9 14 -22 25 -29 25 -7 0 -18 6 -25 14 -6 8 -18 12 -26 9 -8
-3 -14 0 -14 6 0 14 -38 14 -81 0 -61 -21 -149 -135 -149 -194 0 -13 -4 -26
-9 -30 -11 -6 -20 -60 -25 -164 -3 -40 -8 -77 -13 -82 -5 -5 -7 9 -5 31 3 25
0 40 -7 40 -7 0 -11 23 -10 63 0 42 3 56 9 42 5 -13 7 2 6 42 -2 34 1 60 6 57
4 -3 8 8 8 24 0 69 135 252 185 252 9 0 13 5 10 10 -3 6 2 10 13 10 24 0 77
59 77 85 0 15 6 19 22 18 18 -2 24 5 33 37 11 41 23 50 37 26 10 -17 53 -31
53 -17 0 6 -4 11 -8 11 -5 0 -15 11 -22 25 -12 23 -96 85 -114 85 -5 0 -5 -8
-1 -17z m5 -401 c14 -8 45 -32 71 -53 l45 -38 68 35 c52 26 81 34 120 34 66 0
143 -36 185 -86 29 -35 32 -44 29 -89 -3 -28 -12 -66 -21 -84 -16 -33 -16 -36
3 -76 11 -24 25 -70 31 -104 10 -53 8 -73 -11 -152 -12 -49 -20 -93 -16 -96
13 -14 47 35 61 86 17 65 48 101 87 101 24 0 32 -6 44 -37 20 -47 13 -94 -21
-145 -40 -61 -148 -102 -158 -60 -3 15 -5 15 -12 -3 -36 -90 -78 -168 -109
-202 -44 -49 -138 -116 -166 -118 -11 -1 -31 -12 -46 -26 -23 -21 -34 -24
-105 -24 -47 1 -84 6 -91 13 -16 16 -28 15 -28 -3 0 -8 -5 -15 -11 -15 -7 0
-9 11 -5 30 4 22 2 30 -8 30 -27 0 -136 117 -162 174 -29 63 -47 199 -38 286
2 30 9 132 13 226 10 193 33 280 92 355 53 67 99 79 159 41z m-318 -454 c7
-13 13 -54 15 -93 2 -38 6 -87 9 -107 7 -43 8 -43 -38 -24 -58 25 -88 63 -88
112 0 100 67 174 102 112z m-352 -335 c0 -5 -12 -19 -27 -33 -45 -43 -73 -98
-97 -192 -40 -151 -99 -186 -283 -166 -115 12 -303 5 -423 -17 -47 -8 -87 -15
-90 -15 -10 1 38 25 140 71 58 25 148 67 200 91 52 25 133 63 179 84 47 22
153 71 235 111 158 74 166 78 166 66z m189 -17 c40 -21 61 -53 61 -93 0 -27
-8 -39 -49 -71 -26 -21 -93 -65 -147 -97 -108 -64 -196 -129 -289 -216 -56
-52 -174 -129 -196 -129 -5 0 -7 10 -4 23 5 19 -3 32 -40 66 -77 71 -121 86
-256 86 -89 0 -112 3 -100 11 27 19 127 26 354 25 177 0 225 2 257 15 50 20
86 63 100 117 25 96 44 141 91 213 l50 77 69 -6 c38 -3 82 -13 99 -21z m-629
-150 c0 -11 -134 -66 -142 -58 -10 10 60 42 92 42 11 0 20 5 20 10 0 6 7 10
15 10 8 0 15 -2 15 -4z m818 -31 c89 -28 64 -64 -50 -70 -110 -5 -169 -34
-161 -78 4 -22 2 -22 -100 -22 l-104 0 31 21 c17 11 65 40 106 64 41 24 97 61
123 81 41 32 52 36 75 29 15 -5 51 -16 80 -25z m713 -129 c45 -98 75 -215 84
-341 6 -90 37 -274 51 -309 7 -18 4 -19 -37 -12 -24 3 -67 9 -95 12 -50 6 -53
8 -74 55 l-23 48 22 50 c26 62 26 87 0 153 -14 38 -23 91 -29 188 -4 74 -11
147 -15 161 -4 17 -1 30 9 38 14 12 20 5 46 -51 34 -73 66 -191 79 -293 l8
-70 2 55 c1 79 -32 229 -69 309 -30 65 -33 91 -9 91 6 0 28 -38 50 -84z
m-1746 61 c-16 -7 -68 -31 -114 -55 -59 -30 -91 -42 -108 -37 -13 3 -21 9 -19
14 15 23 189 89 236 89 l35 0 -30 -11z m1208 -11 c19 -15 23 -41 5 -32 -7 3
-21 9 -30 12 -19 7 -23 16 -11 27 9 10 15 8 36 -7z m-104 -17 c37 -13 36 -28
-5 -49 -42 -21 -217 -21 -239 1 -13 13 -14 18 -3 26 36 30 186 43 247 22z
m494 -41 c3 -13 9 -57 12 -100 6 -61 5 -76 -6 -75 -16 2 -286 -130 -294 -144
-3 -4 8 -36 25 -70 33 -68 34 -69 21 -69 -23 0 -111 94 -127 135 -23 60 -15
167 14 198 11 12 27 38 34 57 l14 35 100 -3 c98 -4 99 -3 138 27 46 37 62 39
69 9z m-1863 -8 l-25 -19 33 -7 c53 -11 38 -27 -20 -21 -51 4 -54 3 -93 -37
-23 -22 -48 -52 -57 -66 -15 -21 -19 -23 -27 -10 -33 47 4 95 112 145 82 38
115 45 77 15z m1472 -7 c15 -15 28 -37 28 -49 0 -26 -51 -81 -89 -96 -164 -65
-331 -104 -531 -123 -80 -8 -156 -14 -170 -14 -25 1 -25 1 3 13 l29 13 -32 13
c-21 9 -27 15 -19 21 8 5 3 9 -15 11 -27 3 -25 5 39 58 77 64 85 68 85 43 0
-10 9 -32 19 -49 l19 -32 -38 -17 c-24 -11 -49 -15 -67 -11 -27 6 -27 6 -9 -9
25 -19 40 -19 98 2 45 16 50 16 83 0 56 -27 119 -22 169 12 45 31 76 70 76 96
0 19 20 19 46 0 33 -25 96 -19 143 15 44 32 81 83 81 113 0 25 20 21 52 -10z
m-119 -64 c-52 -48 -99 -58 -154 -34 -21 10 -39 24 -39 31 0 7 -12 22 -27 34
l-28 21 25 -6 c53 -15 165 -16 210 -2 59 18 63 3 13 -44z m777 19 c28 -18 58
-49 71 -72 18 -34 190 -323 232 -390 7 -11 24 -30 38 -43 38 -33 52 -75 47
-135 -5 -47 -10 -57 -52 -94 -42 -38 -166 -98 -191 -93 -5 1 -9 12 -7 23 2 19
1 19 -15 -4 -29 -41 -96 -102 -130 -116 -34 -15 -81 -18 -107 -8 -27 11 -17
24 18 24 42 0 96 19 96 33 0 18 -61 137 -71 137 -4 0 -34 -7 -66 -15 -31 -8
-83 -15 -114 -15 -55 0 -57 1 -61 29 -4 26 -1 30 25 35 16 3 45 6 64 6 33 0
126 40 138 60 8 13 -1 13 -25 0 -14 -8 -21 -4 -35 16 l-17 27 48 -7 c43 -6 95
-17 218 -43 20 -4 27 -3 22 5 -4 6 -22 14 -41 18 -20 3 -37 9 -39 13 -3 4 24
37 59 73 48 51 73 69 101 74 29 5 33 9 20 16 -20 11 -72 1 -104 -20 -13 -9
-35 -33 -48 -54 -13 -21 -28 -38 -32 -38 -9 0 -26 137 -41 325 -9 105 -22 163
-56 248 -10 24 -1 22 55 -15z m-1050 9 c60 -16 62 -44 5 -64 -55 -19 -174 -20
-186 -2 -7 11 -9 11 -9 1 0 -16 -37 -7 -59 13 -11 11 -9 16 12 30 48 31 161
41 237 22z m-1117 -23 c3 -4 -8 -16 -26 -28 -69 -47 -37 -120 76 -174 101 -49
154 -63 266 -68 101 -6 110 -5 191 26 47 17 101 42 122 56 35 25 37 25 62 8
15 -9 24 -19 22 -22 -12 -11 -215 -75 -266 -83 -189 -30 -282 -33 -335 -12 -9
3 -22 18 -31 34 -13 26 -20 29 -62 29 -55 0 -120 16 -139 35 -29 30 -2 94 75
178 27 28 34 31 45 21z m74 -47 c-84 -66 35 -137 232 -137 78 0 99 4 128 21
39 24 63 14 63 -27 0 -46 -36 -57 -173 -52 -108 4 -132 8 -205 37 -84 33 -162
92 -162 123 0 29 52 55 115 57 l30 1 -28 -23z m1096 -18 c-53 -91 -138 -123
-223 -83 -43 20 -110 88 -98 99 3 3 22 -2 44 -11 49 -21 204 -15 250 8 43 23
47 21 27 -13z m-891 2 c2 -4 30 -22 63 -38 86 -42 80 -57 -24 -61 -99 -3 -180
11 -215 39 -30 24 -34 55 -8 62 32 9 180 7 184 -2z m118 -26 c49 -25 60 -38
40 -50 -5 -3 -10 -2 -10 4 0 6 -24 24 -52 41 -64 36 -47 40 22 5z m1092 -89
c-4 -67 -2 -79 21 -119 30 -51 80 -92 138 -112 37 -14 78 -48 79 -68 0 -12
-58 1 -116 28 -66 29 -126 83 -149 135 -18 39 -17 41 5 125 13 47 24 85 25 85
1 0 0 -33 -3 -74z m-66 55 c-17 -27 -187 -80 -336 -105 -161 -28 -496 -53
-486 -38 10 17 102 32 194 32 149 0 435 49 572 99 30 11 56 20 58 20 2 1 1 -3
-2 -8z m13 -66 c-63 -193 -94 -451 -71 -600 9 -57 9 -72 -3 -85 -18 -20 -34
-92 -35 -156 0 -33 -5 -56 -15 -64 -8 -7 -15 -9 -16 -4 -3 28 3 231 11 364 17
293 96 632 140 605 4 -3 -1 -29 -11 -60z m500 -32 c17 -54 31 -114 31 -133 0
-33 -20 -75 -44 -92 -8 -6 -8 -10 -1 -15 9 -7 85 -164 85 -177 0 -8 -65 -27
-68 -19 -2 4 -18 44 -36 88 l-32 80 -45 5 c-49 6 -75 21 -111 65 -31 38 -85
168 -72 172 6 2 62 30 125 62 63 31 119 58 125 59 6 1 25 -42 43 -95z m-577
-25 c-69 -222 -87 -391 -87 -831 0 -196 -1 -357 -1 -357 -10 0 -84 70 -106
100 l-29 39 20 103 c11 57 34 207 51 333 17 127 37 269 45 316 33 192 99 388
122 365 3 -2 -4 -33 -15 -68z m-67 15 c-5 -10 -20 -64 -34 -120 -14 -57 -29
-103 -33 -103 -6 0 -106 60 -126 75 -1 1 9 31 22 66 l24 64 63 16 c87 22 93
22 84 2z m-185 -30 c-1 -18 -29 -88 -36 -90 -5 -1 -22 8 -38 21 -24 20 -26 27
-17 44 7 13 24 22 44 25 17 2 35 5 40 5 4 1 7 -1 7 -5z m-120 -24 c0 -6 -5
-19 -10 -30 -8 -14 -7 -19 1 -19 6 0 39 -24 73 -53 34 -29 82 -68 107 -85 26
-17 49 -38 52 -46 7 -17 -14 -136 -32 -179 -16 -40 -50 -50 -138 -37 -82 11
-117 29 -139 72 -19 38 -75 249 -68 260 3 4 16 8 29 8 30 0 55 10 55 21 0 5
-26 6 -58 3 -57 -6 -59 -6 -85 27 -14 18 -23 37 -21 41 9 14 54 9 60 -7 4 -8
13 -15 21 -15 12 0 13 3 4 14 -10 12 0 16 61 24 40 5 76 10 81 11 4 0 7 -4 7
-10z m-342 -44 c16 -35 16 -35 -17 -35 -15 0 -40 9 -55 21 -14 11 -26 16 -26
10 0 -7 -10 -7 -30 1 -55 19 -42 28 38 28 75 0 79 -1 90 -25z m100 -7 c16 -43
16 -44 -16 -40 -24 3 -72 45 -72 65 0 4 17 7 38 7 33 0 39 -4 50 -32z m716
-21 c27 -47 63 -78 140 -120 43 -24 59 -27 147 -27 l98 0 16 -30 c19 -37 19
-50 0 -50 -9 0 -18 -6 -21 -14 -6 -17 12 -56 26 -56 6 0 5 9 -2 20 -16 25 4
52 24 32 9 -9 9 -12 -1 -12 -7 0 -3 -9 10 -19 l24 -19 -28 -11 c-16 -6 -46
-11 -67 -11 -31 0 -43 -5 -56 -25 -33 -51 8 -90 84 -81 41 6 49 3 63 -17 16
-22 39 -89 39 -114 0 -6 -29 -21 -64 -33 -52 -17 -69 -19 -86 -10 -14 7 -69
10 -153 9 -108 -2 -138 0 -162 14 -58 32 -77 53 -86 98 -11 52 -22 326 -14
339 3 6 16 5 31 0 38 -15 194 -25 194 -13 0 6 -31 13 -68 16 -74 7 -147 29
-147 43 1 17 28 134 30 134 2 0 15 -20 29 -43z m383 -375 c2 -18 -2 -22 -22
-22 -19 0 -25 5 -26 23 0 21 -1 21 -9 2 -8 -20 -9 -20 -9 1 -1 28 6 33 36 25
16 -4 27 -15 30 -29z m263 -32 l20 -20 -22 -9 c-55 -20 -116 -22 -150 -5 l-33
18 51 8 c28 4 61 12 75 17 34 14 37 13 59 -9z m35 -71 c4 -11 4 -24 0 -27 -13
-13 -151 -8 -168 7 -27 22 -20 29 26 24 23 -3 58 0 77 5 52 15 58 14 65 -9z
m147 -71 c8 -18 37 -57 63 -86 45 -49 47 -54 35 -81 -6 -16 -23 -40 -37 -53
l-25 -23 -22 29 c-11 16 -32 41 -44 55 l-24 26 23 -40 c12 -22 36 -59 52 -83
26 -39 31 -72 10 -72 -4 0 -23 35 -42 78 -19 42 -49 109 -67 149 l-32 71 37
31 c20 16 41 30 47 30 6 1 17 -14 26 -31z m-277 -1 c8 -13 26 -50 39 -83 58
-143 137 -331 147 -348 9 -16 8 -22 -6 -32 -10 -8 -21 -11 -25 -9 -15 9 -139
273 -158 336 -40 130 -38 199 3 136z m-577 -26 c20 -16 56 -35 80 -42 28 -8
42 -18 42 -29 0 -27 -58 -99 -98 -123 -29 -17 -33 -23 -18 -25 10 -2 35 10 56
27 22 17 41 31 44 31 14 0 4 -75 -15 -111 -11 -22 -18 -46 -15 -52 2 -7 10 3
17 21 8 17 16 32 20 32 11 0 32 -309 26 -388 -3 -42 -13 -94 -22 -114 -8 -21
-15 -42 -15 -47 0 -19 80 -32 190 -29 60 1 113 -1 116 -5 12 -12 -6 -56 -39
-90 -27 -30 -42 -36 -107 -47 -104 -17 -164 -37 -193 -64 -14 -13 -30 -21 -35
-17 -6 3 -20 31 -32 61 -28 73 -36 218 -18 323 14 74 13 80 -8 145 -35 104
-55 235 -56 365 -1 126 10 160 31 102 7 -19 17 -35 22 -35 13 0 12 6 -12 52
-13 25 -18 49 -15 64 8 30 9 30 54 -5z m783 -146 c99 -212 100 -215 94 -236
-8 -23 -49 -42 -74 -34 -10 3 -44 73 -86 176 -38 94 -75 183 -82 199 l-12 28
50 -2 50 -3 60 -128z m-233 31 c12 -52 36 -127 53 -168 17 -40 33 -80 35 -89
7 -20 -63 -69 -98 -69 -27 0 -68 40 -68 66 0 8 -5 14 -11 14 -14 0 -2 -37 25
-77 42 -65 101 -66 147 -4 25 34 39 39 39 16 0 -26 -58 -144 -96 -196 -19 -27
-31 -49 -26 -49 10 0 66 60 90 96 11 16 12 11 7 -36 -4 -30 -11 -60 -16 -66
-5 -7 -33 -21 -62 -33 -29 -12 -60 -26 -69 -31 -10 -6 -21 -10 -25 -10 -5 0
-8 48 -9 108 -1 102 -13 166 -70 370 l-7 24 42 -22 c59 -30 75 -19 20 13 -56
33 -75 54 -81 90 -6 32 -6 33 48 6 27 -13 57 -19 81 -17 40 4 34 9 -34 27 -45
12 -103 55 -103 76 0 7 23 17 58 24 31 6 64 16 72 21 29 19 36 9 58 -84z
m-208 10 c0 -49 15 -129 49 -270 27 -111 51 -217 54 -236 l5 -35 -112 -3 c-62
-1 -124 2 -138 7 -24 9 -26 15 -32 108 -4 54 -13 163 -22 242 -13 130 -13 167
2 238 4 21 8 22 99 20 l95 -2 0 -69z m657 -42 c6 -17 -41 -124 -55 -124 -5 0
-16 8 -25 18 -16 17 -15 20 7 41 14 13 30 36 36 52 14 32 27 37 37 13z m69
-45 c44 -31 46 -34 41 -71 -3 -22 -17 -58 -32 -80 l-27 -41 -31 31 -31 31 26
21 c32 25 55 87 39 103 -8 8 -11 6 -11 -9 0 -20 -49 -104 -61 -104 -4 0 -13 7
-20 16 -11 14 -11 18 2 28 19 13 49 69 49 91 0 20 2 20 56 -16z m-1179 -51
c-2 -41 -6 -53 -19 -56 -14 -3 -16 4 -14 41 6 82 35 95 33 15z m1076 -162
c-30 -48 -132 -156 -148 -156 -12 0 -65 75 -65 91 0 4 8 12 18 17 21 11 82 23
82 17 0 -3 -15 -19 -32 -35 -18 -16 -28 -30 -21 -30 14 0 143 140 143 155 0 5
-9 -1 -19 -14 l-18 -24 -6 28 c-2 16 0 37 6 46 10 16 14 14 48 -18 l37 -36
-25 -41z m-1068 47 c3 -21 9 -48 12 -60 4 -19 1 -23 -21 -23 -25 0 -26 3 -26
53 0 30 3 57 7 60 13 14 21 6 28 -30z m1145 -52 c33 -27 34 -30 21 -54 -23
-44 -104 -135 -147 -167 l-42 -30 -26 34 c-31 41 -32 53 -7 61 27 8 117 107
138 149 9 20 19 36 23 36 3 0 21 -13 40 -29z m-1292 -63 c13 -15 39 -33 57
-40 l35 -12 0 -73 c0 -49 -4 -73 -12 -73 -19 0 -84 75 -108 125 -13 27 -25 71
-27 99 l-4 51 18 -25 c10 -13 28 -37 41 -52z m186 -68 c8 -36 18 -73 21 -82 6
-14 2 -18 -20 -18 -14 0 -35 -5 -46 -10 -18 -10 -19 -7 -19 47 0 32 -3 74 -6
95 -6 33 -4 37 17 40 33 5 36 2 53 -72z m-239 -17 c18 -43 77 -108 116 -128
24 -13 26 -18 21 -62 -2 -26 -6 -50 -8 -52 -6 -7 -74 74 -116 138 -29 42 -38
66 -38 98 0 24 2 43 5 43 3 0 12 -17 20 -37z m74 -225 c53 -58 57 -73 45 -150
-4 -21 -10 -38 -14 -38 -10 0 -82 105 -108 157 -27 53 -45 130 -37 162 6 23 8
21 35 -26 16 -27 51 -75 79 -105z m428 121 c15 -6 79 -10 141 -10 l113 1 -3
-26 c-3 -26 -4 -26 -103 -31 -60 -2 -117 1 -142 8 -38 10 -43 15 -43 40 0 33
-1 33 37 18z m128 -85 c108 7 122 2 106 -45 l-11 -34 -132 3 c-73 2 -138 5
-145 7 -9 3 -9 12 -1 37 6 18 12 38 14 45 2 9 13 8 41 -4 30 -12 58 -14 128
-9z m295 -4 c0 -5 -8 -10 -18 -10 -10 0 -18 -8 -19 -17 -1 -10 -7 -48 -14 -85
-10 -53 -17 -69 -34 -74 -11 -4 -28 -13 -38 -22 -22 -20 -26 -15 -41 51 l-13
56 31 30 c17 16 47 36 66 44 19 9 28 16 20 17 -11 1 -9 4 5 10 28 12 55 12 55
0z m73 -111 c21 -32 37 -67 35 -76 -3 -13 -10 -6 -22 22 -10 22 -20 35 -23 28
-2 -6 5 -30 16 -52 25 -48 25 -51 6 -51 -8 0 -15 -4 -15 -10 0 -5 -7 -10 -15
-10 -8 0 -15 7 -15 15 0 22 -28 75 -40 75 -5 0 2 -23 16 -51 19 -36 23 -54 15
-62 -7 -7 -13 -2 -20 16 -6 15 -15 27 -20 27 -21 0 -22 66 -2 129 12 35 21 71
22 80 0 13 2 13 12 -3 7 -10 29 -45 50 -77z m-148 -103 c-17 -7 -39 -25 -48
-39 -20 -31 -21 -37 -6 -37 6 0 22 -9 36 -20 36 -28 56 -25 125 15 33 20 63
33 67 29 9 -9 -68 -73 -96 -80 -62 -16 -155 40 -169 100 -5 21 -4 27 5 22 6
-4 11 -17 12 -29 0 -14 2 -17 6 -7 8 23 56 60 78 60 15 -1 12 -4 -10 -14z m49
-21 c3 -8 -3 -19 -12 -25 -15 -10 -14 -11 5 -7 28 6 39 -9 23 -28 -16 -19 -50
-19 -78 1 -29 20 -28 35 6 56 35 21 48 22 56 3z m-292 -77 c-5 -40 -28 -68
-56 -68 -14 0 -17 -3 -9 -11 17 -17 52 -1 73 33 l18 30 21 -56 c25 -68 26 -85
5 -114 -13 -19 -82 -62 -99 -62 -3 0 -5 13 -5 28 0 15 -12 51 -26 80 -28 55
-74 92 -118 92 -51 0 -25 17 72 47 128 41 130 41 124 1z m-137 -98 c25 -23 58
-94 69 -145 5 -25 2 -35 -18 -54 l-24 -23 -7 54 c-16 115 -63 178 -136 178
-43 0 -51 12 -16 27 28 13 100 -7 132 -37z m-47 -47 c24 -30 39 -73 48 -138 6
-38 3 -43 -35 -78 -23 -20 -45 -37 -49 -37 -5 0 -16 16 -25 35 -18 37 -60 71
-77 60 -14 -9 -13 8 10 105 12 46 26 87 32 91 19 12 72 -10 96 -38z m-182 -75
c-3 -13 -6 -31 -6 -40 0 -20 -107 -81 -116 -66 -7 12 -8 11 43 37 23 11 45 26
49 32 4 6 3 10 -2 7 -53 -25 -87 -38 -91 -34 -3 3 16 15 43 27 26 13 42 25 36
27 -6 2 -20 -2 -31 -8 -12 -6 -21 -7 -21 -2 0 11 60 41 84 41 14 1 17 -4 12
-21z m-20 -103 c-6 -23 -4 -25 19 -19 20 5 31 0 55 -26 16 -18 30 -38 30 -44
0 -7 -20 -22 -45 -35 -38 -19 -50 -21 -84 -11 -39 10 -60 38 -46 60 10 16 30
12 59 -11 21 -17 29 -19 41 -9 22 19 18 34 -14 53 -26 15 -32 15 -65 2 -26
-11 -36 -21 -36 -37 0 -21 -1 -21 -17 -6 -13 14 -14 20 -3 32 7 9 19 16 26 16
8 0 14 4 14 9 0 8 58 50 69 51 2 0 0 -11 -3 -25z m119 -42 c19 -25 34 -51 32
-57 -6 -18 -27 -18 -27 -1 0 26 -40 85 -64 95 l-21 9 22 0 c15 1 34 -14 58
-46z m-97 -27 c3 -15 1 -15 -32 1 -23 10 -32 19 -24 24 16 10 52 -5 56 -25z
m101 -60 c9 -11 5 -16 -20 -25 -18 -6 -50 -10 -73 -10 -26 1 -32 3 -16 6 37 6
80 24 80 34 0 14 16 11 29 -5z"/>
<path d="M1841 3739 c-31 -34 -26 -95 11 -122 22 -17 47 -20 166 -25 174 -6
207 0 227 38 20 39 19 63 -4 91 -18 23 -25 24 -148 24 -70 0 -151 4 -179 9
-46 8 -53 6 -73 -15z m231 -14 c109 0 129 -3 147 -19 27 -25 26 -41 -4 -71
-22 -23 -31 -25 -127 -25 -129 0 -219 14 -235 37 -34 46 6 101 62 86 17 -4 87
-8 157 -8z"/>
<path d="M2153 3547 c-39 -12 -74 -25 -77 -28 -4 -3 3 -14 14 -24 17 -16 25
-17 59 -7 51 16 127 14 176 -3 21 -8 41 -12 44 -10 14 15 -103 97 -135 94 -5
0 -41 -10 -81 -22z"/>
<path d="M1759 3545 c-25 -13 -53 -58 -43 -68 3 -3 17 1 32 9 31 16 119 18
156 4 24 -9 26 -7 26 16 0 19 -8 28 -35 40 -43 18 -102 18 -136 -1z"/>
<path d="M1956 3424 c5 -43 2 -77 -10 -117 -18 -64 -46 -89 -119 -109 -40 -10
-46 -16 -52 -45 -8 -44 0 -55 31 -43 40 16 44 13 44 -35 0 -108 44 -149 161
-150 97 0 122 16 164 103 25 52 33 62 50 57 46 -14 50 -11 53 32 3 47 2 48
-88 75 -35 10 -46 18 -48 36 -4 29 -47 51 -64 34 -9 -9 -6 -12 15 -12 15 0 27
-4 27 -10 0 -34 -98 -78 -146 -66 -34 9 -37 37 -13 101 17 46 20 72 16 122 -3
36 -10 70 -16 76 -8 8 -9 -5 -5 -49z m-21 -246 c10 -13 18 -25 17 -27 -1 -3
-33 -6 -70 -8 -56 -3 -69 -1 -69 11 0 9 18 21 41 29 57 20 59 20 81 -5z m230
-8 c19 -11 35 -18 35 -15 0 2 14 -1 30 -6 29 -11 38 -23 22 -33 -4 -2 -37 2
-72 9 -36 8 -80 14 -97 15 -42 0 -42 11 0 31 43 22 41 22 82 -1z m-110 -51
c49 -1 49 -1 15 -10 -38 -9 -106 -2 -130 13 -10 6 -2 7 25 4 22 -3 63 -6 90
-7z m-125 -14 c48 -17 156 -20 194 -5 33 12 35 -4 4 -24 -42 -27 -111 -39
-155 -27 -42 11 -93 45 -93 62 0 12 0 12 50 -6z m250 -10 c0 -16 -50 -113 -65
-125 -13 -10 -41 -15 -94 -15 -94 0 -125 17 -141 76 -16 57 -6 71 16 24 16
-32 27 -42 64 -52 45 -14 108 -10 142 8 10 6 27 28 38 49 11 22 25 40 30 40 6
0 10 -2 10 -5z"/>
<path d="M1764 3454 c-18 -15 -18 -15 6 -9 53 15 91 17 120 7 16 -6 30 -7 30
-3 0 26 -126 29 -156 5z"/>
<path d="M2156 3457 c-16 -12 -10 -13 43 -9 46 3 67 0 87 -13 26 -17 41 -15
30 4 -17 27 -130 40 -160 18z"/>
<path d="M1763 3423 c-101 -51 12 -129 137 -96 32 9 35 13 32 44 -1 20 -11 41
-23 52 -27 22 -102 22 -146 0z m32 -23 c-3 -10 -1 -28 5 -40 12 -23 3 -26 -35
-8 -32 14 -31 21 1 47 33 26 37 26 29 1z m125 -30 c0 -23 -18 -30 -49 -19 -19
8 -21 12 -11 24 10 12 16 13 26 4 11 -9 14 -8 14 5 0 10 5 14 10 11 6 -3 10
-14 10 -25z"/>
<path d="M2134 3420 c-18 -7 -54 -50 -54 -65 0 -3 15 -14 33 -25 23 -15 50
-20 98 -20 63 0 129 15 129 28 0 16 -41 67 -62 78 -26 15 -112 17 -144 4z m38
-35 c-2 -14 1 -32 8 -40 16 -19 0 -20 -47 -3 -40 15 -41 20 -7 47 36 28 52 27
46 -4z m129 -16 c12 -23 0 -39 -30 -39 -11 0 -11 3 -1 15 7 8 10 22 6 30 -8
23 12 18 25 -6z m-43 -6 c-5 -25 -28 -28 -28 -4 0 12 6 21 16 21 9 0 14 -7 12
-17z"/>
<path d="M2547 3262 c-30 -31 -33 -43 -14 -73 10 -17 9 -22 -7 -35 -11 -7 -17
-16 -14 -19 3 -3 17 4 32 16 26 20 26 22 10 40 -21 24 -11 53 16 46 11 -3 20
-1 20 4 0 5 -6 9 -12 9 -7 0 -2 9 12 20 23 18 24 20 4 20 -11 0 -32 -13 -47
-28z"/>
<path d="M1570 3349 c0 -7 8 -17 17 -24 15 -11 16 -16 4 -39 -11 -21 -12 -28
-1 -41 7 -8 18 -15 24 -15 7 0 6 3 -2 8 -9 6 -11 21 -6 50 4 28 2 47 -6 57
-15 18 -30 20 -30 4z"/>
<path d="M983 2881 c-13 -22 -37 -45 -57 -55 -49 -23 -56 -41 -9 -21 42 17 93
70 93 97 0 25 -2 23 -27 -21z"/>
<path d="M767 2810 c14 -15 103 -24 103 -11 0 4 -17 8 -37 8 -21 1 -47 4 -58
8 -16 7 -18 5 -8 -5z"/>
<path d="M738 2769 c-31 -17 -19 -30 12 -14 17 9 30 18 30 20 0 8 -24 5 -42
-6z"/>
<path d="M2091 2464 c-52 -24 -92 -47 -89 -50 7 -6 144 56 173 79 30 24 19 20
-84 -29z"/>
<path d="M2329 1205 c-8 -9 -35 -19 -60 -24 -42 -7 -43 -8 -16 -16 37 -10 74
1 88 26 14 26 7 33 -12 14z"/>
<path d="M2400 832 c0 -5 7 -15 15 -22 8 -7 15 -21 15 -31 0 -11 4 -19 9 -19
13 0 -7 55 -25 71 -8 7 -14 7 -14 1z"/>
</g>
</svg>
